<?xml version="1.0" encoding="UTF-8" standalone="no"?>
<!DOCTYPE svg PUBLIC "-//W3C//DTD SVG 1.1//EN"
 "http://www.w3.org/Graphics/SVG/1.1/DTD/svg11.dtd">
<!-- Generated by graphviz version 12.2.1 (20241206.2353)
 -->
<!-- Title: SceneGraph Pages: 1 -->
<svg width="316pt" height="245pt"
 viewBox="0.00 0.00 316.30 244.64" xmlns="http://www.w3.org/2000/svg" xmlns:xlink="http://www.w3.org/1999/xlink">
<g id="graph0" class="graph" transform="scale(1 1) rotate(0) translate(18 226.64)">
<title>SceneGraph</title>
<polygon fill="white" stroke="none" points="-18,18 -18,-226.64 298.3,-226.64 298.3,18 -18,18"/>
<text text-anchor="middle" x="96.12" y="-189.44" font-family="Helvetica,sans-Serif" font-size="16.00">Generated Scene Graph</text>
<text text-anchor="middle" x="96.12" y="-172.94" font-family="Helvetica,sans-Serif" font-size="16.00">scene_017</text>
<!-- groundsurface_1 -->
<g id="node1" class="node">
<title>groundsurface_1</title>
<path fill="#efe7dd" stroke="#000000" stroke-width="1.2" d="M273.42,-73.64C273.42,-73.64 191.78,-73.64 191.78,-73.64 188.34,-73.64 184.9,-70.2 184.9,-66.76 184.9,-66.76 184.9,-59.88 184.9,-59.88 184.9,-56.44 188.34,-53 191.78,-53 191.78,-53 273.42,-53 273.42,-53 276.86,-53 280.3,-56.44 280.3,-59.88 280.3,-59.88 280.3,-66.76 280.3,-66.76 280.3,-70.2 276.86,-73.64 273.42,-73.64"/>
<text text-anchor="middle" x="232.6" y="-58.87" font-family="Helvetica,sans-Serif" font-size="11.00">groundsurface_1</text>
</g>
<!-- jacket_1 -->
<g id="node2" class="node">
<title>jacket_1</title>
<path fill="#f5efe9" stroke="#000000" stroke-width="1.2" d="M47.27,-146.64C47.27,-146.64 6.88,-146.64 6.88,-146.64 3.44,-146.64 0,-143.2 0,-139.76 0,-139.76 0,-132.88 0,-132.88 0,-129.44 3.44,-126 6.88,-126 6.88,-126 47.27,-126 47.27,-126 50.71,-126 54.15,-129.44 54.15,-132.88 54.15,-132.88 54.15,-139.76 54.15,-139.76 54.15,-143.2 50.71,-146.64 47.27,-146.64"/>
<text text-anchor="middle" x="27.07" y="-131.87" font-family="Helvetica,sans-Serif" font-size="11.00">jacket_1</text>
</g>
<!-- jacket_1&#45;&gt;groundsurface_1 -->
<g id="edge2" class="edge">
<title>jacket_1&#45;&gt;groundsurface_1</title>
<path fill="none" stroke="#000000" stroke-width="1.2" d="M54.27,-126.93C89.33,-114.35 151.8,-91.94 192.46,-77.36"/>
<polygon fill="#000000" stroke="#000000" stroke-width="1.2" points="193.25,-80.05 199.83,-74.71 191.36,-74.78 193.25,-80.05"/>
<text text-anchor="middle" x="119.53" y="-115.95" font-family="Helvetica,sans-Serif" font-size="9.00">on</text>
</g>
<!-- leg_1 -->
<g id="node4" class="node">
<title>leg_1</title>
<path fill="#f3f4f6" stroke="#000000" stroke-width="1.2" d="M246.05,-167.64C246.05,-167.64 219.16,-167.64 219.16,-167.64 215.72,-167.64 212.28,-164.2 212.28,-160.76 212.28,-160.76 212.28,-153.88 212.28,-153.88 212.28,-150.44 215.72,-147 219.16,-147 219.16,-147 246.05,-147 246.05,-147 249.49,-147 252.93,-150.44 252.93,-153.88 252.93,-153.88 252.93,-160.76 252.93,-160.76 252.93,-164.2 249.49,-167.64 246.05,-167.64"/>
<text text-anchor="middle" x="232.6" y="-152.87" font-family="Helvetica,sans-Serif" font-size="11.00">leg_1</text>
</g>
<!-- jacket_1&#45;&gt;leg_1 -->
<g id="edge3" class="edge">
<title>jacket_1&#45;&gt;leg_1</title>
<path fill="none" stroke="#000000" stroke-width="1.2" d="M54.27,-139.02C92.29,-142.95 162.56,-150.2 202.28,-154.29"/>
<polygon fill="#000000" stroke="#000000" stroke-width="1.2" points="201.86,-157.07 210.1,-155.1 202.43,-151.5 201.86,-157.07"/>
<text text-anchor="middle" x="119.53" y="-150.52" font-family="Helvetica,sans-Serif" font-size="9.00">near</text>
</g>
<!-- leaf_1 -->
<g id="node3" class="node">
<title>leaf_1</title>
<path fill="#e4f1e8" stroke="#000000" stroke-width="1.2" d="M42.02,-73.64C42.02,-73.64 12.13,-73.64 12.13,-73.64 8.69,-73.64 5.25,-70.2 5.25,-66.76 5.25,-66.76 5.25,-59.88 5.25,-59.88 5.25,-56.44 8.69,-53 12.13,-53 12.13,-53 42.02,-53 42.02,-53 45.46,-53 48.9,-56.44 48.9,-59.88 48.9,-59.88 48.9,-66.76 48.9,-66.76 48.9,-70.2 45.46,-73.64 42.02,-73.64"/>
<text text-anchor="middle" x="27.07" y="-58.87" font-family="Helvetica,sans-Serif" font-size="11.00">leaf_1</text>
</g>
<!-- leaf_1&#45;&gt;groundsurface_1 -->
<g id="edge1" class="edge">
<title>leaf_1&#45;&gt;groundsurface_1</title>
<path fill="none" stroke="#000000" stroke-width="1.2" d="M49.09,-63.32C78.52,-63.32 133.1,-63.32 174.93,-63.32"/>
<polygon fill="#000000" stroke="#000000" stroke-width="1.2" points="174.91,-66.12 182.91,-63.32 174.91,-60.52 174.91,-66.12"/>
<text text-anchor="middle" x="119.53" y="-64.52" font-family="Helvetica,sans-Serif" font-size="9.00">onGroundSurface</text>
</g>
<!-- shoe_1 -->
<g id="node5" class="node">
<title>shoe_1</title>
<path fill="#f5efe9" stroke="#000000" stroke-width="1.2" d="M45.02,-20.64C45.02,-20.64 9.13,-20.64 9.13,-20.64 5.69,-20.64 2.25,-17.2 2.25,-13.76 2.25,-13.76 2.25,-6.88 2.25,-6.88 2.25,-3.44 5.69,0 9.13,0 9.13,0 45.02,0 45.02,0 48.46,0 51.9,-3.44 51.9,-6.88 51.9,-6.88 51.9,-13.76 51.9,-13.76 51.9,-17.2 48.46,-20.64 45.02,-20.64"/>
<text text-anchor="middle" x="27.07" y="-5.87" font-family="Helvetica,sans-Serif" font-size="11.00">shoe_1</text>
</g>
<!-- shoe_1&#45;&gt;groundsurface_1 -->
<g id="edge4" class="edge">
<title>shoe_1&#45;&gt;groundsurface_1</title>
<path fill="none" stroke="#000000" stroke-width="1.2" d="M52.22,-16.61C83.77,-24.82 139.84,-39.42 180.91,-50.12"/>
<polygon fill="#000000" stroke="#000000" stroke-width="1.2" points="180.02,-52.78 188.46,-52.09 181.43,-47.36 180.02,-52.78"/>
<text text-anchor="middle" x="119.53" y="-44.33" font-family="Helvetica,sans-Serif" font-size="9.00">on</text>
</g>
</g>
</svg>
