<?xml version="1.0" encoding="UTF-8" standalone="no"?>
<!DOCTYPE svg PUBLIC "-//W3C//DTD SVG 1.1//EN"
 "http://www.w3.org/Graphics/SVG/1.1/DTD/svg11.dtd">
<!-- Generated by graphviz version 12.2.1 (20241206.2353)
 -->
<!-- Title: SceneGraph Pages: 1 -->
<svg width="449pt" height="239pt"
 viewBox="0.00 0.00 448.70 238.64" xmlns="http://www.w3.org/2000/svg" xmlns:xlink="http://www.w3.org/1999/xlink">
<g id="graph0" class="graph" transform="scale(1 1) rotate(0) translate(18 220.64)">
<title>SceneGraph</title>
<polygon fill="white" stroke="none" points="-18,18 -18,-220.64 430.7,-220.64 430.7,18 -18,18"/>
<text text-anchor="middle" x="96.12" y="-183.44" font-family="Helvetica,sans-Serif" font-size="16.00">Generated Scene Graph</text>
<text text-anchor="middle" x="96.12" y="-166.94" font-family="Helvetica,sans-Serif" font-size="16.00">scene_007</text>
<!-- foot_1 -->
<g id="node1" class="node">
<title>foot_1</title>
<path fill="#f3f4f6" stroke="#000000" stroke-width="1.2" d="M380.32,-20.64C380.32,-20.64 349.68,-20.64 349.68,-20.64 346.24,-20.64 342.8,-17.2 342.8,-13.76 342.8,-13.76 342.8,-6.88 342.8,-6.88 342.8,-3.44 346.24,0 349.68,0 349.68,0 380.32,0 380.32,0 383.76,0 387.2,-3.44 387.2,-6.88 387.2,-6.88 387.2,-13.76 387.2,-13.76 387.2,-17.2 383.76,-20.64 380.32,-20.64"/>
<text text-anchor="middle" x="365" y="-5.87" font-family="Helvetica,sans-Serif" font-size="11.00">foot_1</text>
</g>
<!-- groundsurface_1 -->
<g id="node2" class="node">
<title>groundsurface_1</title>
<path fill="#efe7dd" stroke="#000000" stroke-width="1.2" d="M405.82,-91.64C405.82,-91.64 324.18,-91.64 324.18,-91.64 320.74,-91.64 317.3,-88.2 317.3,-84.76 317.3,-84.76 317.3,-77.88 317.3,-77.88 317.3,-74.44 320.74,-71 324.18,-71 324.18,-71 405.82,-71 405.82,-71 409.26,-71 412.7,-74.44 412.7,-77.88 412.7,-77.88 412.7,-84.76 412.7,-84.76 412.7,-88.2 409.26,-91.64 405.82,-91.64"/>
<text text-anchor="middle" x="365" y="-76.87" font-family="Helvetica,sans-Serif" font-size="11.00">groundsurface_1</text>
</g>
<!-- handfork_1 -->
<g id="node3" class="node">
<title>handfork_1</title>
<path fill="#f6ebe7" stroke="#000000" stroke-width="1.2" d="M392.32,-161.64C392.32,-161.64 337.68,-161.64 337.68,-161.64 334.24,-161.64 330.8,-158.2 330.8,-154.76 330.8,-154.76 330.8,-147.88 330.8,-147.88 330.8,-144.44 334.24,-141 337.68,-141 337.68,-141 392.32,-141 392.32,-141 395.76,-141 399.2,-144.44 399.2,-147.88 399.2,-147.88 399.2,-154.76 399.2,-154.76 399.2,-158.2 395.76,-161.64 392.32,-161.64"/>
<text text-anchor="middle" x="365" y="-146.87" font-family="Helvetica,sans-Serif" font-size="11.00">handfork_1</text>
</g>
<!-- jacket_1 -->
<g id="node4" class="node">
<title>jacket_1</title>
<path fill="#f5efe9" stroke="#000000" stroke-width="1.2" d="M47.27,-54.64C47.27,-54.64 6.88,-54.64 6.88,-54.64 3.44,-54.64 0,-51.2 0,-47.76 0,-47.76 0,-40.88 0,-40.88 0,-37.44 3.44,-34 6.88,-34 6.88,-34 47.27,-34 47.27,-34 50.71,-34 54.15,-37.44 54.15,-40.88 54.15,-40.88 54.15,-47.76 54.15,-47.76 54.15,-51.2 50.71,-54.64 47.27,-54.64"/>
<text text-anchor="middle" x="27.07" y="-39.87" font-family="Helvetica,sans-Serif" font-size="11.00">jacket_1</text>
</g>
<!-- trowel_1 -->
<g id="node6" class="node">
<title>trowel_1</title>
<path fill="#f6ebe7" stroke="#000000" stroke-width="1.2" d="M179.67,-54.64C179.67,-54.64 137.78,-54.64 137.78,-54.64 134.34,-54.64 130.9,-51.2 130.9,-47.76 130.9,-47.76 130.9,-40.88 130.9,-40.88 130.9,-37.44 134.34,-34 137.78,-34 137.78,-34 179.67,-34 179.67,-34 183.11,-34 186.55,-37.44 186.55,-40.88 186.55,-40.88 186.55,-47.76 186.55,-47.76 186.55,-51.2 183.11,-54.64 179.67,-54.64"/>
<text text-anchor="middle" x="158.72" y="-39.87" font-family="Helvetica,sans-Serif" font-size="11.00">trowel_1</text>
</g>
<!-- jacket_1&#45;&gt;trowel_1 -->
<g id="edge4" class="edge">
<title>jacket_1&#45;&gt;trowel_1</title>
<path fill="none" stroke="#000000" stroke-width="1.2" d="M54.62,-44.32C73.81,-44.32 99.97,-44.32 121.13,-44.32"/>
<polygon fill="#000000" stroke="#000000" stroke-width="1.2" points="120.95,-47.12 128.95,-44.32 120.95,-41.52 120.95,-47.12"/>
<text text-anchor="middle" x="92.52" y="-45.52" font-family="Helvetica,sans-Serif" font-size="9.00">near</text>
</g>
<!-- pant_1 -->
<g id="node5" class="node">
<title>pant_1</title>
<path fill="#f5efe9" stroke="#000000" stroke-width="1.2" d="M175.54,-127.64C175.54,-127.64 141.9,-127.64 141.9,-127.64 138.46,-127.64 135.02,-124.2 135.02,-120.76 135.02,-120.76 135.02,-113.88 135.02,-113.88 135.02,-110.44 138.46,-107 141.9,-107 141.9,-107 175.54,-107 175.54,-107 178.98,-107 182.42,-110.44 182.42,-113.88 182.42,-113.88 182.42,-120.76 182.42,-120.76 182.42,-124.2 178.98,-127.64 175.54,-127.64"/>
<text text-anchor="middle" x="158.72" y="-112.87" font-family="Helvetica,sans-Serif" font-size="11.00">pant_1</text>
</g>
<!-- pant_1&#45;&gt;groundsurface_1 -->
<g id="edge2" class="edge">
<title>pant_1&#45;&gt;groundsurface_1</title>
<path fill="none" stroke="#000000" stroke-width="1.2" d="M182.76,-113.26C212.8,-107.97 266.37,-98.53 307.5,-91.28"/>
<polygon fill="#000000" stroke="#000000" stroke-width="1.2" points="307.96,-94.04 315.35,-89.89 306.98,-88.52 307.96,-94.04"/>
<text text-anchor="middle" x="251.92" y="-107.88" font-family="Helvetica,sans-Serif" font-size="9.00">onGroundSurface</text>
</g>
<!-- pant_1&#45;&gt;handfork_1 -->
<g id="edge3" class="edge">
<title>pant_1&#45;&gt;handfork_1</title>
<path fill="none" stroke="#000000" stroke-width="1.2" d="M182.76,-121.15C216.25,-126.73 278.99,-137.17 321.13,-144.19"/>
<polygon fill="#000000" stroke="#000000" stroke-width="1.2" points="320.44,-146.91 328.79,-145.46 321.36,-141.38 320.44,-146.91"/>
<text text-anchor="middle" x="251.92" y="-139.57" font-family="Helvetica,sans-Serif" font-size="9.00">nextTo</text>
</g>
<!-- trowel_1&#45;&gt;foot_1 -->
<g id="edge5" class="edge">
<title>trowel_1&#45;&gt;foot_1</title>
<path fill="none" stroke="#000000" stroke-width="1.2" d="M172.53,-33.78C183.27,-25.66 199.41,-15.08 215.55,-10.57 254.8,0.41 302.2,-2.08 332.7,-5.59"/>
<polygon fill="#000000" stroke="#000000" stroke-width="1.2" points="332.28,-8.36 340.57,-6.57 332.98,-2.8 332.28,-8.36"/>
<text text-anchor="middle" x="251.92" y="-11.77" font-family="Helvetica,sans-Serif" font-size="9.00">nextTo</text>
</g>
<!-- trowel_1&#45;&gt;groundsurface_1 -->
<g id="edge1" class="edge">
<title>trowel_1&#45;&gt;groundsurface_1</title>
<path fill="none" stroke="#000000" stroke-width="1.2" d="M186.85,-49.23C217.6,-54.8 268.55,-64.03 307.94,-71.17"/>
<polygon fill="#000000" stroke="#000000" stroke-width="1.2" points="307.02,-73.84 315.39,-72.51 308.01,-68.33 307.02,-73.84"/>
<text text-anchor="middle" x="251.92" y="-68.42" font-family="Helvetica,sans-Serif" font-size="9.00">onGroundSurface</text>
</g>
</g>
</svg>
